0
SECTION
2
HEADER
9
$INSUNITS
70
4
9
$ACADVER
1
AC1014
9
$HANDSEED
5
FFFF
0
ENDSEC
0
SECTION
2
TABLES
0
TABLE
2
VPORT
5
8
100
AcDbSymbolTable
0
ENDTAB
0
TABLE
2
LTYPE
5
5
100
AcDbSymbolTable
0
LTYPE
5
14
100
AcDbSymbolTableRecord
100
AcDbLinetypeTableRecord
2
BYBLOCK
70
0
0
LTYPE
5
15
100
AcDbSymbolTableRecord
100
AcDbLinetypeTableRecord
2
BYLAYER
70
0
0
ENDTAB
0
TABLE
2
LAYER
5
2
100
AcDbSymbolTable
70
2
0
LAYER
5
50
100
AcDbSymbolTableRecord
100
AcDbLayerTableRecord
2
0
70
0
6
CONTINUOUS
0
ENDTAB
0
TABLE
2
STYLE
5
3
100
AcDbSymbolTable
70
1
0
STYLE
5
11
100
AcDbSymbolTableRecord
100
AcDbTextStyleTableRecord
2
STANDARD
70
0
0
ENDTAB
0
TABLE
2
VIEW
5
6
100
AcDbSymbolTable
70
0
0
ENDTAB
0
TABLE
2
UCS
5
7
100
AcDbSymbolTable
70
0
0
ENDTAB
0
TABLE
2
APPID
5
9
100
AcDbSymbolTable
70
2
0
APPID
5
12
100
AcDbSymbolTableRecord
100
AcDbRegAppTableRecord
2
ACAD
70
0
0
ENDTAB
0
TABLE
2
DIMSTYLE
5
A
100
AcDbSymbolTable
70
1
0
ENDTAB
0
TABLE
2
BLOCK_RECORD
5
1
100
AcDbSymbolTable
70
1
0
BLOCK_RECORD
5
1F
100
AcDbSymbolTableRecord
100
AcDbBlockTableRecord
2
*MODEL_SPACE
0
BLOCK_RECORD
5
1B
100
AcDbSymbolTableRecord
100
AcDbBlockTableRecord
2
*PAPER_SPACE
0
ENDTAB
0
ENDSEC
0
SECTION
2
BLOCKS
0
BLOCK
5
20
100
AcDbEntity
100
AcDbBlockBegin
2
*MODEL_SPACE
0
ENDBLK
5
21
100
AcDbEntity
100
AcDbBlockEnd
0
BLOCK
5
1C
100
AcDbEntity
100
AcDbBlockBegin
2
*PAPER_SPACE
0
ENDBLK
5
1D
100
AcDbEntity
100
AcDbBlockEnd
0
ENDSEC
0
SECTION
2
ENTITIES
0
LWPOLYLINE
5
100
100
AcDbEntity
8
0
100
AcDbPolyline
90
8
70
1
43
0.0
10
-64.150000000000006
20
37.250000000000007
42
-0.41421356237312101
10
-63.850000000000016
20
37.550000000000011
10
-50.450000000000003
20
37.550000000000011
42
-0.41421356237309936
10
-50.150000000000006
20
37.250000000000014
10
-50.150000000000013
20
23.850000000000001
42
-0.41421356237310802
10
-50.450000000000017
20
23.550000000000004
10
-63.850000000000016
20
23.550000000000008
42
-0.41421356237309509
10
-64.150000000000034
20
23.850000000000001
0
LWPOLYLINE
5
101
100
AcDbEntity
8
0
100
AcDbPolyline
90
8
70
1
43
0.0
10
-69.200000000000003
20
15.700000000000024
10
-69.200000000000017
20
2.2999999999999954
42
-0.41421356237310725
10
-69.500000000000014
20
1.9999999999999956
10
-82.900000000000006
20
2.0000000000000018
42
-0.41421356237312973
10
-83.200000000000003
20
2.2999999999999954
10
-83.200000000000003
20
15.700000000000024
42
-0.41421356237305601
10
-82.900000000000006
20
16.000000000000018
10
-69.500000000000014
20
16.000000000000018
42
-0.41421356237309293
0
LWPOLYLINE
5
102
100
AcDbEntity
8
0
100
AcDbPolyline
90
8
70
1
43
0.0
10
-82.900000000000006
20
21.049999999999997
42
-0.414213562373134
10
-83.200000000000003
20
21.349999999999994
10
-83.200000000000003
20
34.750000000000021
42
-0.41421356237308204
10
-82.900000000000006
20
35.050000000000011
10
-69.500000000000014
20
35.050000000000026
42
-0.41421356237308637
10
-69.200000000000003
20
34.750000000000021
10
-69.200000000000017
20
21.349999999999994
42
-0.41421356237305601
10
-69.500000000000014
20
21.050000000000001
0
LWPOLYLINE
5
103
100
AcDbEntity
8
0
100
AcDbPolyline
90
21
70
1
43
0.0
10
28.574999999999999
20
-10.525000000000082
42
0.41421356237309009
10
29.57500000000001
20
-9.5250000000000767
10
29.575000000000074
20
48.028747444516391
42
0.27600759101213901
10
29.048786418358787
20
48.909387228865732
42
0.030622052826736808
10
11.592339655843615
20
56.965207319985744
42
0.005982518359947721
10
8.0727371917630464
20
58.286663071175653
42
0.15290575581396548
10
-85.73180725240934
20
62.392680930729369
42
0.34003488897301759
10
-86.475000000000094
20
61.426218290421858
10
-86.474999999999923
20
14.831258626823535
42
-0.30582306746952997
10
-87.100706766266882
20
13.903948228315212
42
0.1007800491146854
10
-124.19262950097706
20
-10.637647575396114
10
-130.92782159177921
20
-17.372839666198278
42
0.41421356237310014
10
-130.92782159177915
20
-18.787053228571359
10
-103.9870532285711
20
-45.72782159177904
42
0.41421356237312257
10
-102.57283966619795
20
-45.727821591778977
10
-95.837647575398677
20
-38.992629500979092
42
-0.19891236737966991
10
-45.38589133288081
20
-18.094827819785493
10
-16.810891332880907
20
-18.09482781978555
42
0.41421356237309509
10
-15.810891332880912
20
-17.094827819785554
10
-15.810891332880907
20
-11.525
42
-0.4142135623730957
10
-14.810891332880907
20
-10.525000000000002
0
LINE
5
104
100
AcDbEntity
8
0
100
AcDbLine
10
-58.081017846675536
20
-15.019605449402844
30
0
11
-61.549193051049322
21
-2.076199377129555
31
0
0
LWPOLYLINE
5
105
100
AcDbEntity
8
0
100
AcDbPolyline
90
8
70
1
43
0.0
10
-44.800000000000011
20
44.050000000000004
10
-31.400000000000002
20
44.050000000000011
42
-0.41421356237309509
10
-31.100000000000001
20
43.749999999999993
10
-31.100000000000009
20
30.349999999999998
42
-0.41421356237309509
10
-31.400000000000002
20
30.049999999999994
10
-44.799999999999983
20
30.04999999999999
42
-0.41421356237308204
10
-45.100000000000009
20
30.349999999999998
10
-45.100000000000016
20
43.749999999999993
42
-0.41421356237308637
0
ARC
5
106
100
AcDbEntity
8
0
100
AcDbCircle
10
-104.99421539749807
20
0.40827361744974644
30
0
40
0.30562714083804771
210
0
220
0
230
1
100
AcDbArc
50
120.75920206471072
51
205.95837657072343
0
LWPOLYLINE
5
107
100
AcDbEntity
8
0
100
AcDbPolyline
90
8
70
1
43
0.0
10
-25.749999999999925
20
18.999999999999908
10
-12.349999999999921
20
18.999999999999908
42
-0.41421356237309936
10
-12.049999999999921
20
18.699999999999907
10
-12.049999999999921
20
5.2999999999999137
42
-0.41421356237308637
10
-12.349999999999921
20
4.999999999999913
10
-25.749999999999925
20
4.9999999999999103
42
-0.4142135623730907
10
-26.049999999999915
20
5.2999999999999137
10
-26.049999999999915
20
18.699999999999907
42
-0.41421356237307771
0
LWPOLYLINE
5
108
100
AcDbEntity
8
0
100
AcDbPolyline
90
8
70
1
43
0.0
10
-31.100000000000001
20
62.800000000000004
10
-31.100000000000009
20
49.400000000000013
42
-0.41421356237309509
10
-31.400000000000002
20
49.100000000000001
10
-44.799999999999997
20
49.100000000000009
42
-0.41421356237312101
10
-45.100000000000009
20
49.400000000000013
10
-45.100000000000016
20
62.800000000000004
42
-0.41421356237311241
10
-44.800000000000011
20
63.100000000000009
10
-31.400000000000002
20
63.100000000000009
42
-0.4142135623730604
0
LWPOLYLINE
5
109
100
AcDbEntity
8
0
100
AcDbPolyline
90
8
70
1
43
0.0
10
-25.749999999999925
20
57.099999999999902
10
-12.349999999999921
20
57.099999999999902
42
-0.4142135623731189
10
-12.049999999999921
20
56.799999999999912
10
-12.049999999999926
20
43.399999999999906
42
-0.41421356237308854
10
-12.349999999999921
20
43.099999999999909
10
-25.749999999999925
20
43.099999999999909
42
-0.41421356237310802
10
-26.049999999999926
20
43.399999999999906
10
-26.049999999999915
20
56.799999999999912
42
-0.41421356237310802
0
CIRCLE
5
110
100
AcDbEntity
8
0
100
AcDbCircle
10
-7.0000000000000373
20
49.850000000000037
30
0
40
1.2
210
0
220
0
230
1
0
LWPOLYLINE
5
111
100
AcDbEntity
8
0
100
AcDbPolyline
90
8
70
1
43
0.0
10
-31.400000000000002
20
10.999999999999995
10
-44.799999999999997
20
10.999999999999998
42
-0.41421356237310153
10
-45.100000000000016
20
11.29999999999999
10
-45.100000000000016
20
24.699999999999992
42
-0.41421356237309936
10
-44.800000000000011
20
25
10
-31.400000000000002
20
25
42
-0.41421356237308637
10
-31.100000000000001
20
24.699999999999992
10
-31.100000000000001
20
11.299999999999994
42
-0.41421356237309714
0
CIRCLE
5
112
100
AcDbEntity
8
0
100
AcDbCircle
10
-57.376142737482432
20
1.6306156756178234
30
0
40
1.2
210
0
220
0
230
1
0
LWPOLYLINE
5
113
100
AcDbEntity
8
0
100
AcDbPolyline
90
8
70
1
43
0.0
10
-6.7000000000000348
20
-6.9999999999999662
42
-0.41421356237309614
10
-7.0000000000000373
20
-6.6999999999999638
10
-7.0000000000000373
20
6.7000000000000348
42
-0.41421356237309714
10
-6.7000000000000339
20
7.0000000000000373
10
6.7000000000000979
20
7.0000000000000373
42
-0.41421356237309614
10
7.0000000000001004
20
6.7000000000000313
10
6.9999999999999707
20
-6.6999999999999691
42
-0.41421356237309614
10
6.6999999999999682
20
-6.9999999999999662
0
LWPOLYLINE
5
114
100
AcDbEntity
8
0
100
AcDbPolyline
90
8
70
1
43
0.0
10
-64.150000000000034
20
42.90000000000002
10
-64.15000000000002
20
56.300000000000018
42
-0.41421356237308637
10
-63.850000000000016
20
56.600000000000009
10
-50.45000000000001
20
56.600000000000009
42
-0.41421356237305162
10
-50.150000000000006
20
56.300000000000018
10
-50.150000000000013
20
42.90000000000002
42
-0.41421356237308637
10
-50.450000000000017
20
42.600000000000009
10
-63.850000000000016
20
42.599999999999994
42
-0.41421356237312101
0
LWPOLYLINE
5
115
100
AcDbEntity
8
0
100
AcDbPolyline
90
8
70
1
43
0.0
10
12.049999999999992
20
25.749990000000018
42
-0.41421356237309714
10
12.349999999999996
20
26.049990000000012
10
25.750000000000011
20
26.049990000000012
42
-0.41421356237308637
10
26.050000000000004
20
25.749990000000018
10
26.050000000000004
20
12.349990000000005
42
-0.41421356237310364
10
25.75
20
12.049990000000006
10
12.350000000000005
20
12.049990000000006
42
-0.41421356237310364
10
12.050000000000001
20
12.349990000000005
0
LWPOLYLINE
5
116
100
AcDbEntity
8
0
100
AcDbPolyline
90
8
70
1
43
0.0
10
12.349999999999996
20
45.09999000000002
10
25.750000000000011
20
45.09999000000002
42
-0.41421356237305601
10
26.050000000000004
20
44.799990000000022
10
26.050000000000004
20
31.39999000000001
42
-0.41421356237310364
10
25.75
20
31.099990000000005
10
12.350000000000005
20
31.099990000000002
42
-0.41421356237308854
10
12.050000000000002
20
31.39999000000001
10
12.049999999999992
20
44.799990000000022
42
-0.41421356237311457
0
LWPOLYLINE
5
117
100
AcDbEntity
8
0
100
AcDbPolyline
90
8
70
1
43
0.0
10
-6.7000000000000339
20
45.100000000000051
10
6.7000000000000979
20
45.100000000000044
42
-0.41421356237311241
10
7.0000000000001004
20
44.80000000000004
10
6.9999999999999707
20
31.400000000000038
42
-0.41421356237308204
10
6.6999999999999682
20
31.100000000000037
10
-6.7000000000000348
20
31.100000000000037
42
-0.41421356237309293
10
-7.0000000000000373
20
31.400000000000038
10
-7.0000000000000391
20
44.80000000000004
42
-0.41421356237308965
0
LWPOLYLINE
5
118
100
AcDbEntity
8
0
100
AcDbPolyline
90
8
70
1
43
0.0
10
-33.03589133288105
20
-14.569827819785637
10
-19.63589133288103
20
-14.569827819785655
42
0.41421356237309714
10
-19.33589133288103
20
-14.269827819785652
10
-19.335891332881022
20
-0.86982781978551138
42
0.41421356237309925
10
-19.635891332881027
20
-0.56982781978551056
10
-33.035891332881064
20
-0.56982781978556762
42
0.41421356237310275
10
-33.335891332881062
20
-0.86982781978556467
10
-33.335891332881033
20
-14.269827819785641
42
0.41421356237310364
0
LWPOLYLINE
5
119
100
AcDbEntity
8
0
100
AcDbPolyline
90
8
70
1
43
0.0
10
12.050000000000002
20
-6.7000100000000016
10
12.049999999999997
20
6.6999900000000148
42
-0.4142135623730907
10
12.349999999999996
20
6.9999900000000137
10
25.750000000000011
20
6.9999900000000101
42
-0.41421356237310591
10
26.050000000000004
20
6.6999900000000148
10
26.050000000000004
20
-6.7000099999999998
42
-0.41421356237310264
10
25.75
20
-7.0000099999999996
10
12.350000000000003
20
-7.0000099999999996
42
-0.41421356237308854
0
LWPOLYLINE
5
120
100
AcDbEntity
8
0
100
AcDbPolyline
90
8
70
1
43
0.0
10
-64.150000000000006
20
18.200000000000006
42
-0.41421356237310364
10
-63.850000000000016
20
18.500000000000007
10
-50.45000000000001
20
18.500000000000007
42
-0.41421356237311019
10
-50.150000000000006
20
18.200000000000006
10
-50.150000000000013
20
4.8000000000000025
42
-0.41421356237310858
10
-50.450000000000017
20
4.5000000000000018
10
-63.850000000000016
20
4.5000000000000053
42
-0.41421356237308254
10
-64.150000000000034
20
4.8000000000000043
0
LWPOLYLINE
5
121
100
AcDbEntity
8
0
100
AcDbPolyline
90
8
70
1
43
0.0
10
-83.200000000000003
20
40.40000000000002
10
-83.200000000000003
20
53.800000000000026
42
-0.414213562373069
10
-82.900000000000006
20
54.100000000000037
10
-69.500000000000014
20
54.10000000000003
42
-0.41421356237312101
10
-69.200000000000003
20
53.800000000000026
10
-69.200000000000017
20
40.40000000000002
42
-0.41421356237308637
10
-69.500000000000014
20
40.100000000000009
10
-82.900000000000034
20
40.100000000000016
42
-0.41421356237310364
0
LWPOLYLINE
5
122
100
AcDbEntity
8
0
100
AcDbPolyline
90
8
70
1
43
0.0
10
6.9999999999999698
20
12.350000000000033
42
-0.41421356237308965
10
6.6999999999999682
20
12.050000000000036
10
-6.7000000000000348
20
12.050000000000036
42
-0.41421356237309176
10
-7.0000000000000373
20
12.350000000000033
10
-7.0000000000000391
20
25.750000000000043
42
-0.41421356237307982
10
-6.7000000000000339
20
26.05000000000004
10
6.7000000000000979
20
26.05000000000004
42
-0.41421356237309293
10
7.0000000000001004
20
25.750000000000032
0
LWPOLYLINE
5
123
100
AcDbEntity
8
0
100
AcDbPolyline
90
8
70
1
43
0.0
10
-26.049999999999919
20
37.749999999999922
42
-0.41421356237308637
10
-25.749999999999925
20
38.049999999999912
10
-12.349999999999921
20
38.049999999999912
42
-0.41421356237310153
10
-12.049999999999921
20
37.749999999999922
10
-12.049999999999921
20
24.349999999999923
42
-0.41421356237310153
10
-12.349999999999921
20
24.049999999999923
10
-25.749999999999925
20
24.049999999999908
42
-0.41421356237311241
10
-26.049999999999926
20
24.349999999999916
0
LWPOLYLINE
5
124
100
AcDbEntity
8
0
100
AcDbPolyline
90
8
70
1
43
0.0
10
-38.685891332881035
20
-0.569827819785514
42
-0.41421356237310697
10
-38.385891332881023
20
-0.86982781978551138
10
-38.38589133288103
20
-14.269827819785652
42
-0.4142135623730907
10
-38.685891332881035
20
-14.569827819785655
10
-52.08589133288104
20
-14.569827819785639
42
-0.41421356237309936
10
-52.38589133288103
20
-14.269827819785641
10
-52.385891332881059
20
-0.86982781978556467
42
-0.41421356237308254
10
-52.085891332881069
20
-0.56982781978556563
0
LINE
5
125
100
AcDbEntity
8
0
100
AcDbLine
10
-90.029098121225928
20
-26.12008337327557
30
0
11
-89.035348121226122
21
-27.841308863296931
31
0
0
CIRCLE
5
126
100
AcDbEntity
8
0
100
AcDbCircle
10
-66.675000000000068
20
60.125
30
0
40
1.2
210
0
220
0
230
1
0
CIRCLE
5
127
100
AcDbEntity
8
0
100
AcDbCircle
10
9.5250000000000021
20
47.624989999999997
30
0
40
1.2
210
0
220
0
230
1
0
CIRCLE
5
128
100
AcDbEntity
8
0
100
AcDbCircle
10
-13.16365655498219
20
0.24999999999991412
30
0
40
1.2
210
0
220
0
230
1
0
CIRCLE
5
129
100
AcDbEntity
8
0
100
AcDbCircle
10
-101.30725435658294
20
-16.566246567140123
30
0
40
1.2
210
0
220
0
230
1
0
CIRCLE
5
130
100
AcDbEntity
8
0
100
AcDbCircle
10
9.5250000000000021
20
9.5249900000000007
30
0
40
1.2
210
0
220
0
230
1
0
ARC
5
131
100
AcDbEntity
8
0
100
AcDbCircle
10
-74.782376871209294
20
-5.6220202950339555
30
0
40
0.2999999999999961
210
0
220
0
230
1
100
AcDbArc
50
105.00000000000033
51
195.00000000000009
0
LINE
5
132
100
AcDbEntity
8
0
100
AcDbLine
10
-75.072154619096011
20
-5.6996660085647113
30
0
11
-71.603979414722545
21
-18.643072080837882
31
0
0
ARC
5
133
100
AcDbEntity
8
0
100
AcDbCircle
10
-71.314201666835814
20
-18.565426367307115
30
0
40
0.30000000000001603
210
0
220
0
230
1
100
AcDbArc
50
195.00000000000151
51
284.9999999999992
0
LINE
5
134
100
AcDbEntity
8
0
100
AcDbLine
10
-71.236555953305057
20
-18.855204115193853
30
0
11
-58.293149881031503
21
-15.38702891082032
31
0
0
ARC
5
135
100
AcDbEntity
8
0
100
AcDbCircle
10
-58.370795594562253
20
-15.097251162933601
30
0
40
0.29999999999999699
210
-0
220
0
230
1
100
AcDbArc
50
-75.000000000001137
51
15.000000000000242
0
LWPOLYLINE
5
136
100
AcDbEntity
8
0
100
AcDbPolyline
90
8
70
1
43
0.0
10
-126.43777747232123
20
-18.291956784402174
42
-0.4115335490114409
10
-126.43899652165304
20
-17.868861138247954
10
-116.96242069280252
20
-8.3926443938015822
42
-0.41421356237313178
10
-116.53815662409058
20
-8.3926443938015733
10
-107.06292575619075
20
-17.867875261701368
42
-0.41421356237308277
10
-107.06292575619077
20
-18.292139330413292
10
-116.53815662409052
20
-27.767370198312978
42
-0.4142135623730705
10
-116.96242069280243
20
-27.767370198312978
0
LWPOLYLINE
5
137
100
AcDbEntity
8
0
100
AcDbPolyline
90
8
70
1
43
0.0
10
-103.06784275097216
20
-41.237596282198261
42
-0.34119799924049998
10
-103.49198100571391
20
-41.237665406944814
10
-112.97245288691117
20
-31.760870169657458
42
-0.40951660817757018
10
-112.96721187361368
20
-31.338170470333175
10
-103.491981005714
20
-21.862939602433407
42
-0.41421356237309509
10
-103.06771693700205
20
-21.862939602433428
10
-93.592486069102293
20
-31.338170470333221
42
-0.41421356237307971
10
-93.592486069102307
20
-31.762434539045138
0
LINE
5
138
100
AcDbEntity
8
0
100
AcDbLine
10
-61.916616512466774
20
-1.8640673427735843
30
0
11
-74.860022584740051
21
-5.3322425471472403
31
0
0
ARC
5
139
100
AcDbEntity
8
0
100
AcDbCircle
10
-61.838970798936039
20
-2.1538450906603037
30
0
40
0.2999999999999946
210
0
220
-0
230
1
100
AcDbArc
50
14.99999999999879
51
104.99999999999621
0
ARC
5
140
100
AcDbEntity
8
0
100
AcDbCircle
10
-58.370795594562253
20
-15.097251162933601
30
0
40
0.29999999999999699
210
-0
220
0
230
1
100
AcDbArc
50
-75.000000000001137
51
15.000000000000242
0
LINE
5
141
100
AcDbEntity
8
0
100
AcDbLine
10
-95.735298546609883
20
-16.236593227244519
30
0
11
-89.035298546610363
21
-27.841333637955621
31
0
0
ARC
5
142
100
AcDbEntity
8
0
100
AcDbCircle
10
-95.47549092547456
20
-16.086593227244524
30
0
40
0.29999999999999122
210
0
220
0
230
1
100
AcDbArc
50
119.99999999999872
51
209.99999999999997
0
LINE
5
143
100
AcDbEntity
8
0
100
AcDbLine
10
-84.020750514763378
20
-9.1267856061094399
30
0
11
-95.625490925474551
21
-15.826785606109194
31
0
0
LINE
5
144
100
AcDbEntity
8
0
100
AcDbLine
10
-76.910942893628231
20
-20.84133363795592
30
0
11
-83.610942893628078
21
-9.2365932272447875
31
0
0
ARC
5
145
100
AcDbEntity
8
0
100
AcDbCircle
10
-83.870750514763415
20
-9.3865932272447754
30
0
40
0.29999999999999888
210
0
220
-0
230
1
100
AcDbArc
50
29.999999999997446
51
119.99999999999353
0
ARC
5
146
100
AcDbEntity
8
0
100
AcDbCircle
10
-77.170750514763554
20
-20.991333637955915
30
0
40
0.29999999999999949
210
-0
220
0
230
1
100
AcDbArc
50
-60.000000000001613
51
29.999999999999996
0
LINE
5
147
100
AcDbEntity
8
0
100
AcDbLine
10
-88.625490925474992
20
-27.951141259090953
30
0
11
-77.020750514763563
21
-21.251141259091249
31
0
0
ARC
5
148
100
AcDbEntity
8
0
100
AcDbCircle
10
-88.775490925474983
20
-27.691333637955605
30
0
40
0.30000000000004517
210
0
220
0
230
1
100
AcDbArc
50
209.99999999999807
51
299.99999999999704
0
LINE
5
149
100
AcDbEntity
8
0
100
AcDbLine
10
-93.545782213323804
20
7.370906441272381
30
0
11
-105.15052262403503
21
0.67090644127259069
31
0
0
LINE
5
150
100
AcDbEntity
8
0
100
AcDbLine
10
-105.26900851011033
20
0.27449508973443315
30
0
11
-98.560330245170803
21
-11.343641590573903
31
0
0
ARC
5
151
100
AcDbEntity
8
0
100
AcDbCircle
10
-93.395874830978727
20
7.1107531663432866
30
0
40
0.30025314276105747
210
0
220
-0
230
1
100
AcDbArc
50
30.048285604617902
51
119.95171439537619
0
LINE
5
152
100
AcDbEntity
8
0
100
AcDbLine
10
-86.435974592188586
20
-4.3436415905741672
30
0
11
-93.135974592188489
21
7.2610988201370406
31
0
0
ARC
5
153
100
AcDbEntity
8
0
100
AcDbCircle
10
-86.695782213323895
20
-4.4936415905741693
30
0
40
0.29999999999998134
210
-0
220
0
230
1
100
AcDbArc
50
-60.000000000005635
51
30.000000000002512
0
LINE
5
154
100
AcDbEntity
8
0
100
AcDbLine
10
-98.15052262403546
20
-11.453449211709239
30
0
11
-86.545782213323932
21
-4.753449211709496
31
0
0
ARC
5
155
100
AcDbEntity
8
0
100
AcDbCircle
10
-98.300522624035438
20
-11.193641590573895
30
0
40
0.30000000000002425
210
0
220
0
230
1
100
AcDbArc
50
209.99999999999798
51
299.99999999999505
0
ENDSEC
0
SECTION
2
OBJECTS
0
DICTIONARY
5
C
100
AcDbDictionary
3
ACAD_GROUP
350
D
3
ACAD_MLINESTYLE
350
17
0
DICTIONARY
5
D
100
AcDbDictionary
0
DICTIONARY
5
1A
330
C
100
AcDbDictionary
0
DICTIONARY
5
17
100
AcDbDictionary
0
ENDSEC
0
EOF
